#!OML:ASF E:\Style4\Style4.ASF
:FULLY-SPECIFIED
:DEGREES
3903
root 0.0504155 16.9981 0.387861 -10.1056 8.20407 1.58489
lowerback 5.07395 3.50194 -0.202439
upperback 6.75135 4.6524 1.64951
thorax 3.9876 2.29176 1.74249
lowerneck 6.89513 -3.38357 -6.07072
upperneck 8.85522 -5.00567 4.01855
head 1.91753 -2.60861 2.35309
rclavicle 1.03318e-013 1.03368e-014
rhumerus 2.07209 17.7905 -82.9454
rradius 129.098
rwrist 26.0177
rhand 28.1231 -5.50287
rfingers 7.12502
rthumb 52.0118 -25.6015
lclavicle 1.03318e-013 1.03368e-014
lhumerus 3.38655 -15.2534 85.6255
lradius 131.331
lwrist -17.4709
lhand 24.1463 40.6455
lfingers 7.12502
lthumb 48.3762 62.6809
rfemur -1.99802 -8.41452 15.1584
rtibia 44.134
rfoot -28.5133 -19.1565
rtoes -12.3437
lfemur -5.11574 -2.99582 -20.258
ltibia 43.8509
lfoot -27.1369 6.13978
ltoes -18.1892
3904
root 0.0462263 17.0009 0.375781 -10.0499 8.23135 1.57266
lowerback 5.15961 3.49008 -0.124517
upperback 6.70157 4.64024 1.58298
thorax 3.8992 2.29149 1.62303
lowerneck 6.93521 -3.39133 -5.95752
upperneck 8.86458 -5.01226 4.02041
head 1.91032 -2.6087 2.3338
rclavicle -5.08889e-014 2.54444e-014
rhumerus 2.15085 17.7535 -83.0181
rradius 129.076
rwrist 26.1056
rhand 28.0785 -5.57464
rfingers 7.12502
rthumb 51.9714 -25.6972
lclavicle -5.08889e-014 2.54444e-014
lhumerus 3.52962 -15.3227 85.5124
lradius 131.359
lwrist -17.2798
lhand 23.9728 40.7764
lfingers 7.12502
lthumb 48.2164 62.8876
rfemur -2.08383 -8.42659 15.1951
rtibia 44.1113
rfoot -28.5811 -19.104
rtoes -12.0485
lfemur -5.22218 -3.00521 -20.2376
ltibia 43.8401
lfoot -27.0789 6.21785
ltoes -18.6191
3905
root 0.0414719 17.0015 0.362955 -10.0378 8.25411 1.55661
lowerback 5.28302 3.45634 -0.0845164
upperback 6.67642 4.59706 1.55944
thorax 3.80994 2.27292 1.56799
lowerneck 6.92905 -3.37415 -5.89573
upperneck 8.90637 -4.98266 3.95481
head 1.91917 -2.59293 2.30033
rclavicle 5.18828e-014 1.15295e-014
rhumerus 2.20014 17.7904 -83.0868
rradius 129.04
rwrist 26.1319
rhand 28.0156 -5.53205
rfingers 7.12502
rthumb 51.9144 -25.6884
lclavicle 5.18828e-014 1.15295e-014
lhumerus 3.6358 -15.2999 85.449
lradius 131.367
lwrist -17.1362
lhand 23.8377 40.8456
lfingers 7.12502
lthumb 48.0919 63.0155
rfemur -2.14039 -8.38801 15.2507
rtibia 44.0823
rfoot -28.6742 -19.0911
rtoes -11.5886
lfemur -5.28901 -3.03051 -20.2068
ltibia 43.8341
lfoot -27.0229 6.18708
ltoes -18.5496
3906
root 0.0366041 17.0043 0.351143 -10.0578 8.30717 1.47281
lowerback 5.33185 3.42961 0.0247483
upperback 6.73254 4.56375 1.57269
thorax 3.84994 2.26047 1.52139
lowerneck 6.89673 -3.3796 -5.91926
upperneck 8.84856 -4.98984 3.97437
head 1.90752 -2.59651 2.31078
rclavicle -4.19933e-014 -9.54166e-015
rhumerus 2.32963 17.7685 -83.055
rradius 129.02
rwrist 26.1688
rhand 28.0353 -5.49313
rfingers 7.12502
rthumb 51.9322 -25.6389
lclavicle -4.19933e-014 -9.54166e-015
lhumerus 3.82873 -15.3091 85.4283
lradius 131.332
lwrist -17.1991
lhand 23.8737 40.7565
lfingers 7.12502
lthumb 48.1251 62.9108
rfemur -2.15081 -8.37124 15.3797
rtibia 44.0279
rfoot -28.6957 -19.2021
rtoes -11.4992
lfemur -5.34411 -3.04759 -20.0906
ltibia 43.8453
lfoot -26.9307 6.10095
ltoes -18.4794
3907
root 0.0308221 17.0072 0.338939 -10.1073 8.3617 1.42522
lowerback 5.35894 3.40557 0.0704361
upperback 6.83705 4.5323 1.58957
thorax 3.94772 2.24584 1.51734
lowerneck 6.85845 -3.37011 -5.97302
upperneck 8.74837 -4.98063 4.04417
head 1.88469 -2.59205 2.34369
rclavicle -2.06736e-014 -8.74653e-015
rhumerus 2.50613 17.782 -82.9775
rradius 129.004
rwrist 26.175
rhand 28.1144 -5.59384
rfingers 7.12502
rthumb 52.0039 -25.6971
lclavicle -2.06736e-014 -8.74653e-015
lhumerus 4.03232 -15.4177 85.4209
lradius 131.289
lwrist -17.1524
lhand 23.5954 40.8651
lfingers 7.12502
lthumb 47.8685 63.1391
rfemur -2.11794 -8.4479 15.4251
rtibia 43.9692
rfoot -28.6629 -19.1639
rtoes -11.3774
lfemur -5.36278 -3.06108 -20.0113
ltibia 43.8463
lfoot -26.8816 5.99774
ltoes -18.4388
3908
root 0.0255207 17.0096 0.325343 -10.1237 8.42158 1.3102
lowerback 5.38913 3.3391 0.131753
upperback 6.87528 4.44306 1.66305
thorax 3.97203 2.20189 1.5607
lowerneck 6.89779 -3.32508 -6.097
upperneck 8.69901 -4.92898 4.05418
head 1.86314 -2.57022 2.37063
rclavicle -4.77083e-014 3.97569e-015
rhumerus 2.5445 17.9318 -82.9076
rradius 128.992
rwrist 26.1707
rhand 28.2052 -5.7198
rfingers 7.12502
rthumb 52.0863 -25.774
lclavicle -4.77083e-014 3.97569e-015
lhumerus 4.01076 -15.5376 85.4913
lradius 131.288
lwrist -16.9963
lhand 22.8317 41.1707
lfingers 7.12502
lthumb 47.1633 63.7646
rfemur -2.13868 -8.5457 15.5526
rtibia 43.9146
rfoot -28.5956 -19.1218
rtoes -11.1806
lfemur -5.44124 -3.0849 -19.86
ltibia 43.8495
lfoot -26.8172 5.97352
ltoes -18.6235
3909
root 0.0218347 17.0104 0.314833 -10.1165 8.52992 1.26521
lowerback 5.3623 3.23655 0.0565874
upperback 6.88682 4.30156 1.7594
thorax 3.98966 2.12503 1.7066
lowerneck 7.00218 -3.26295 -6.25837
upperneck 8.68424 -4.85628 3.98618
head 1.83919 -2.54061 2.37922
rclavicle -1.95803e-014 6.36111e-015
rhumerus 2.48257 18.1918 -82.869
rradius 128.969
rwrist 26.196
rhand 28.2378 -5.71071
rfingers 7.12502
rthumb 52.1158 -25.7473
lclavicle -1.95803e-014 6.36111e-015
lhumerus 3.75804 -15.5495 85.6853
lradius 131.376
lwrist -17.0146
lhand 22.2316 41.315
lfingers 7.12502
lthumb 46.608 64.152
rfemur -2.16522 -8.64248 15.5969
rtibia 43.8907
rfoot -28.4977 -19.1971
rtoes -11.5488
lfemur -5.50516 -3.13575 -19.8045
ltibia 43.8285
lfoot -26.7593 5.92782
ltoes -18.6771
3910
root 0.0195364 17.012 0.307876 -10.1179 8.62398 1.36558
lowerback 5.35422 3.17838 -0.107716
upperback 6.93157 4.21942 1.78106
thorax 4.03018 2.07568 1.82404
lowerneck 6.98529 -3.24388 -6.38054
upperneck 8.71988 -4.83595 3.96675
head 1.85604 -2.53453 2.39458
rclavicle -4.72114e-015 -4.77083e-015
rhumerus 2.47325 18.3369 -82.8313
rradius 128.976
rwrist 26.1507
rhand 28.3042 -5.7711
rfingers 7.12502
rthumb 52.1761 -25.7716
lclavicle -4.72114e-015 -4.77083e-015
lhumerus 3.64683 -15.547 85.8186
lradius 131.43
lwrist -17.0673
lhand 22.1805 41.2842
lfingers 7.12502
lthumb 46.5607 64.1416
rfemur -2.14765 -8.757 15.4441
rtibia 43.882
rfoot -28.4046 -19.2021
rtoes -11.811
lfemur -5.50077 -3.16459 -19.9186
ltibia 43.7944
lfoot -26.698 5.85917
ltoes -18.5833
3911
root 0.0143 17.0134 0.299357 -10.0705 8.68326 1.50139
lowerback 5.4117 3.17485 -0.277011
upperback 6.94133 4.21196 1.74804
thorax 3.99901 2.0655 1.88069
lowerneck 6.90057 -3.26462 -6.39134
upperneck 8.74654 -4.85945 3.95894
head 1.88093 -2.5461 2.39229
rclavicle -1.88845e-014 -1.59028e-014
rhumerus 2.37889 18.3413 -82.8783
rradius 129.005
rwrist 26.1299
rhand 28.3805 -5.6637
rfingers 7.12502
rthumb 52.2452 -25.6226
lclavicle -1.88845e-014 -1.59028e-014
lhumerus 3.75354 -15.5324 85.8143
lradius 131.292
lwrist -17.0586
lhand 22.8338 41.1841
lfingers 7.12502
lthumb 47.1652 63.7772
rfemur -2.20989 -8.81751 15.2873
rtibia 43.8873
rfoot -28.3769 -19.1674
rtoes -11.6789
lfemur -5.54459 -3.16798 -20.0479
ltibia 43.7474
lfoot -26.6111 5.76173
ltoes -18.3717
3912
root 0.00837315 17.0166 0.289086 -10.0699 8.7292 1.44084
lowerback 5.50103 3.21865 -0.169419
upperback 6.9726 4.27442 1.71101
thorax 3.99059 2.10285 1.77738
lowerneck 6.7472 -3.34544 -6.26252
upperneck 8.73931 -4.95402 3.99486
head 1.90745 -2.58735 2.37793
rclavicle -9.00495e-014 2.38542e-015
rhumerus 2.24783 18.119 -82.9568
rradius 129.014
rwrist 26.1142
rhand 28.4852 -5.49463
rfingers 7.12502
rthumb 52.34 -25.3961
lclavicle -9.00495e-014 2.38542e-015
lhumerus 3.93009 -15.6856 85.8025
lradius 131.111
lwrist -17.0707
lhand 23.2244 41.0814
lfingers 7.12502
lthumb 47.5261 63.5123
rfemur -2.25133 -8.88451 15.3626
rtibia 43.8815
rfoot -28.4034 -19.1381
rtoes -11.5006
lfemur -5.5946 -3.16265 -19.9509
ltibia 43.7049
lfoot -26.5485 5.76019
ltoes -18.6162
3913
root 0.00314274 17.0182 0.278992 -10.0971 8.78092 1.39393
lowerback 5.59412 3.24875 -0.096648
upperback 6.99717 4.31738 1.69374
thorax 3.96988 2.12848 1.71351
lowerneck 6.68607 -3.40509 -6.12605
upperneck 8.68909 -5.02133 3.97349
head 1.90001 -2.61607 2.34477
rclavicle -2.80286e-014 -3.33958e-014
rhumerus 2.0936 17.9962 -82.9858
rradius 129.042
rwrist 26.0787
rhand 28.6118 -5.51449
rfingers 7.12502
rthumb 52.4547 -25.3461
lclavicle -2.80286e-014 -3.33958e-014
lhumerus 3.81572 -15.883 85.8791
lradius 131.081
lwrist -17.0035
lhand 23.0139 41.0919
lfingers 7.12502
lthumb 47.3317 63.6106
rfemur -2.2545 -8.92894 15.4279
rtibia 43.8766
rfoot -28.3866 -19.1597
rtoes -11.4328
lfemur -5.62209 -3.16537 -19.8791
ltibia 43.6793
lfoot -26.4839 5.77975
ltoes -18.8633
